<?xml version="1.0" encoding="UTF-8" standalone="no"?>
<!-- Created with Inkscape (http://www.inkscape.org/) -->

<svg
   width="40.639999mm"
   height="128.5mm"
   viewBox="0 0 40.64 128.5"
   version="1.1"
   id="svg1"
   inkscape:version="1.4.3 (0d15f75, 2025-12-25)"
   sodipodi:docname="SCRAMBLER.svg"
   xmlns:inkscape="http://www.inkscape.org/namespaces/inkscape"
   xmlns:sodipodi="http://sodipodi.sourceforge.net/DTD/sodipodi-0.dtd"
   xmlns="http://www.w3.org/2000/svg"
   xmlns:svg="http://www.w3.org/2000/svg">
  <sodipodi:namedview
     id="namedview1"
     pagecolor="#ffffff"
     bordercolor="#000000"
     borderopacity="0.25"
     inkscape:showpageshadow="2"
     inkscape:pageopacity="0.0"
     inkscape:pagecheckerboard="0"
     inkscape:deskcolor="#d1d1d1"
     inkscape:document-units="mm"
     inkscape:zoom="2.3369357"
     inkscape:cx="22.465316"
     inkscape:cy="395.38957"
     inkscape:window-width="1728"
     inkscape:window-height="957"
     inkscape:window-x="0"
     inkscape:window-y="33"
     inkscape:window-maximized="0"
     inkscape:current-layer="layer3" />
  <defs
     id="defs1" />
  <g
     inkscape:label="Layer 1"
     inkscape:groupmode="layer"
     id="layer1">
    <rect
       style="display:inline;fill:#000000;fill-opacity:1;stroke-width:0.264583"
       id="rect1"
       width="40.639999"
       height="128.5"
       x="0"
       y="0"
       inkscape:label="BACKGROUND" />
    <rect
       style="fill:#eaeaea;fill-opacity:1;stroke-width:0.264583"
       id="rect5"
       width="12"
       height="14"
       x="25.5"
       y="106"
       inkscape:label="INVERTED" />
    <path
       style="font-weight:bold;font-size:4.93889px;font-family:Galvji;-inkscape-font-specification:'Galvji Bold';fill:#f1f1f1;stroke-width:0.264583"
       d="m 5.2041775,7.6020809 q 0.012058,0.106109 0.069935,0.1929254 0.057878,0.084405 0.1519288,0.1446941 0.096463,0.060289 0.2242757,0.094051 0.1278131,0.03135 0.2821534,0.03135 0.1422825,0 0.2604493,-0.03135 0.1181668,-0.033762 0.2025716,-0.09164 0.086817,-0.060289 0.1350478,-0.1422824 0.048231,-0.081993 0.048231,-0.1808676 0,-0.081993 -0.033762,-0.1495172 Q 6.511247,7.4019208 6.4389,7.3488664 6.3665529,7.2958119 6.2507977,7.2548152 6.137454,7.211407 5.9782906,7.1776451 L 5.5249159,7.0811824 Q 4.5795815,6.8834339 4.5795815,6.0876166 q 0,-0.2459798 0.094051,-0.4461399 0.096463,-0.2001601 0.2700956,-0.3424426 0.1736328,-0.144694 0.4196127,-0.2218642 0.2459799,-0.07717 0.5474258,-0.07717 0.2869765,0 0.5281333,0.07717 0.2411567,0.07717 0.4172011,0.2170411 0.1760444,0.1374593 0.2773303,0.3303847 0.1012858,0.1929254 0.1085205,0.4244358 H 6.5570668 Q 6.5450089,5.9453342 6.4919544,5.8609293 6.4389,5.7765244 6.3544951,5.7162353 6.2725018,5.6559461 6.1591581,5.6245957 6.048226,5.5908337 5.9155898,5.5908337 q -0.1374593,0 -0.2483914,0.03135 -0.1109321,0.028939 -0.1905138,0.086816 -0.079582,0.055466 -0.12299,0.1374594 -0.043408,0.079582 -0.043408,0.178456 0,0.161575 0.1326362,0.2604493 0.1350478,0.098874 0.4413169,0.1639865 l 0.4196127,0.089228 q 0.2628608,0.055466 0.4509631,0.1422825 0.1905138,0.084405 0.3110922,0.2049832 0.1229899,0.1205784 0.1808675,0.2797418 0.057878,0.1591635 0.057878,0.3617351 0,0.2628609 -0.098874,0.4726673 -0.096463,0.2098063 -0.2797418,0.3569119 -0.1832791,0.1446941 -0.4437284,0.2218642 -0.2604493,0.079582 -0.5884225,0.079582 -0.3110922,0 -0.5643067,-0.074758 Q 5.0763644,8.5112418 4.8954968,8.3737825 4.7146293,8.2363232 4.6109319,8.0409862 4.5096461,7.8456492 4.4999998,7.6020809 Z m 4.2660627,1.0562665 q -0.3786161,0 -0.6824736,-0.1254015 Q 8.4863207,8.4051329 8.2741027,8.1687993 8.0642964,7.9324657 7.9509527,7.5924347 7.837609,7.2524037 7.837609,6.8279678 q 0,-0.4244358 0.1133437,-0.7620553 0.1133437,-0.340031 0.32315,-0.5763646 0.212218,-0.2363336 0.5136639,-0.3617351 0.3038575,-0.1278131 0.6824736,-0.1278131 0.3086806,0 0.5763648,0.098874 0.267684,0.096463 0.467844,0.2700955 0.20016,0.1736329 0.32315,0.4123781 0.12299,0.2387451 0.142282,0.5233101 h -0.709 Q 10.244353,6.1551405 10.174418,6.0321506 10.104482,5.9091606 9.9983734,5.8223442 9.894676,5.7355278 9.7596282,5.689708 9.6245805,5.6414767 9.4702402,5.6414767 q -0.2049833,0 -0.3689698,0.081993 -0.1639866,0.081993 -0.2797419,0.2363336 -0.1157552,0.1543403 -0.1784559,0.3737929 -0.060289,0.2194526 -0.060289,0.4943713 0,0.2749187 0.060289,0.4967829 0.062701,0.2194526 0.1784559,0.3737929 0.1157553,0.1519288 0.2797419,0.2363336 0.1639865,0.081993 0.3713813,0.081993 0.1567519,0 0.2917997,-0.043408 0.1350478,-0.04582 0.2387456,-0.1278131 0.103697,-0.081993 0.173632,-0.1977485 0.06994,-0.1157552 0.09646,-0.2604493 h 0.709001 q -0.0217,0.2821534 -0.144694,0.5160755 -0.120579,0.233922 -0.320739,0.4027317 -0.197748,0.1663982 -0.465432,0.2604493 -0.2676841,0.091639 -0.5811878,0.091639 z M 12.381002,6.7483861 h 0.639065 q 0.277331,0 0.429259,-0.1398709 0.151929,-0.1398709 0.151929,-0.3930855 0,-0.1229899 -0.041,-0.2218642 -0.041,-0.1012858 -0.118166,-0.1712213 -0.07476,-0.069935 -0.185691,-0.1061089 -0.108521,-0.038585 -0.243568,-0.038585 h -0.631831 z m 0,1.8207334 H 11.652709 V 5.0892277 h 1.461409 q 0.286977,0 0.516076,0.07717 0.229099,0.07717 0.388262,0.2218642 0.159164,0.144694 0.243568,0.3520888 0.08682,0.2049833 0.08682,0.4654325 0,0.1663982 -0.04341,0.3207385 -0.041,0.1519287 -0.12299,0.2821534 -0.07958,0.127813 -0.197749,0.2266873 -0.118167,0.098874 -0.267684,0.1591635 l 0.733117,1.3745934 H 13.625371 L 12.976659,7.3078697 H 12.381002 Z M 17.054619,7.7395403 H 15.831954 L 15.56427,8.5691195 h -0.730705 l 1.208196,-3.4798918 h 0.856106 l 1.208195,3.4798918 H 17.31748 Z M 15.988706,7.1776451 h 0.911573 L 16.468608,5.8126979 H 16.4252 Z m 2.710602,1.3914744 V 5.0892277 h 0.858518 l 0.962216,2.3392204 h 0.04341 l 0.964627,-2.3392204 h 0.856106 V 8.5691195 H 21.708945 V 6.2419569 h -0.03859 L 20.785314,8.3689594 H 20.300589 L 19.413132,6.2419569 h -0.03859 v 2.3271626 z m 4.528923,0 V 5.0892277 h 1.521699 q 0.253215,0 0.453375,0.060289 0.20016,0.060289 0.33762,0.1736329 0.13987,0.1109321 0.212218,0.2725071 0.07476,0.1591634 0.07476,0.3617351 0,0.1374593 -0.04823,0.2652724 -0.04823,0.1254015 -0.132636,0.2242758 -0.08441,0.098874 -0.200161,0.1663981 -0.115755,0.067524 -0.248391,0.086816 v 0.043408 q 0.173633,0.012058 0.318327,0.081993 0.147106,0.067524 0.253214,0.178456 0.106109,0.1085206 0.163987,0.2556262 0.06029,0.144694 0.06029,0.3135037 0,0.2290989 -0.08441,0.4147896 -0.08199,0.1832791 -0.238745,0.3135038 -0.156752,0.127813 -0.381027,0.1977485 -0.221865,0.069935 -0.499195,0.069935 z M 23.956525,6.531345 h 0.547426 q 0.296622,0 0.450963,-0.1133436 0.156752,-0.1157553 0.156752,-0.3279732 0,-0.2098064 -0.142283,-0.3255616 Q 24.827101,5.6462998 24.56424,5.6462998 h -0.607715 z m 0.648711,1.4807024 q 0.315916,0 0.479902,-0.1278131 0.166398,-0.1278131 0.166398,-0.3737929 0,-0.2411568 -0.171221,-0.3641467 -0.16881,-0.1229899 -0.49196,-0.1229899 h -0.63183 v 0.9887426 z m 4.323942,0.5570721 H 26.652659 V 5.0892277 h 0.728293 v 2.8456495 h 1.548226 z m 2.966227,0 H 29.589947 V 5.0892277 h 2.305458 V 5.7114121 H 30.31824 v 0.8126982 h 1.487937 V 7.1004749 H 30.31824 v 0.8464602 h 1.577165 z m 1.495171,-1.8207334 h 0.639066 q 0.27733,0 0.429259,-0.1398709 0.151928,-0.1398709 0.151928,-0.3930855 0,-0.1229899 -0.041,-0.2218642 -0.041,-0.1012858 -0.118167,-0.1712213 -0.07476,-0.069935 -0.185691,-0.1061089 -0.10852,-0.038585 -0.243568,-0.038585 h -0.631831 z m 0,1.8207334 H 32.662283 V 5.0892277 h 1.46141 q 0.286976,0 0.516075,0.07717 0.229099,0.07717 0.388263,0.2218642 0.159163,0.144694 0.243568,0.3520888 0.08682,0.2049833 0.08682,0.4654325 0,0.1663982 -0.04341,0.3207385 -0.041,0.1519287 -0.12299,0.2821534 -0.07958,0.127813 -0.197748,0.2266873 -0.118167,0.098874 -0.267684,0.1591635 l 0.733116,1.3745934 H 34.634945 L 33.986233,7.3078697 h -0.595657 z"
       id="text1"
       inkscape:label="SCRAMBLER"
       aria-label="SCRAMBLER" />
    <path
       style="font-size:3.52778px;font-family:Galvji;-inkscape-font-specification:Galvji;fill:#f1f1f1;stroke-width:0.264583"
       d="M 7.301446,118.55971 H 6.9999999 V 116 H 7.301446 Z m 1.0249165,0 H 8.0249164 V 116 h 0.3014461 l 1.3091371,2.04639 H 9.64928 V 116 h 0.298001 v 2.55971 H 9.64928 l -1.3125822,-2.04639 h -0.010335 z"
       id="text2"
       inkscape:label="IN"
       aria-label="IN" />
    <path
       style="font-size:3.52778px;font-family:Galvji;-inkscape-font-specification:Galvji;stroke-width:0.264583"
       d="m 28.498002,117.15411 v 0.38413 q 0,0.2136 0.05512,0.38069 0.05512,0.16708 0.151585,0.27044 0.09819,0.10163 0.223931,0.1533 0.127469,0.0517 0.282498,0.0517 0.153307,0 0.282498,-0.0517 0.129191,-0.0517 0.227376,-0.1533 0.09991,-0.10336 0.153307,-0.27044 0.0534,-0.16709 0.0534,-0.38069 v -0.38413 q 0,-0.42374 -0.199815,-0.65284 -0.198094,-0.2291 -0.516765,-0.2291 -0.315227,0 -0.515042,0.22738 -0.198093,0.22737 -0.198093,0.65456 z m -0.298001,0.38413 v -0.38413 q 0,-0.53743 0.275608,-0.84577 0.275607,-0.30833 0.73725,-0.30833 0.463366,0 0.737251,0.30661 0.275608,0.30661 0.275608,0.84749 v 0.38413 q 0,0.53744 -0.27733,0.83372 -0.275608,0.29455 -0.740696,0.29455 -0.466811,0 -0.737251,-0.29455 -0.27044,-0.29628 -0.27044,-0.83372 z m 2.917997,-1.48483 v 1.67087 q 0,0.30489 0.179145,0.48748 0.179146,0.18259 0.484037,0.18259 0.301446,0 0.482313,-0.18259 0.180868,-0.18259 0.180868,-0.48748 v -1.67087 h 0.298001 v 1.67087 q 0,0.42202 -0.265273,0.68213 -0.265272,0.2601 -0.695909,0.2601 -0.282498,0 -0.501262,-0.11713 -0.218764,-0.11886 -0.339342,-0.3359 -0.118856,-0.21704 -0.118856,-0.49609 v -1.66398 z m 3.128149,2.5597 h -0.298001 v -2.29099 h -0.785482 v -0.26871 h 1.867243 v 0.26871 h -0.78376 z"
       id="text3"
       inkscape:label="OUT"
       aria-label="OUT" />
    <path
       style="font-size:3.52778px;font-family:Galvji;-inkscape-font-specification:Galvji;fill:#f1f1f1;stroke-width:0.264583"
       d="m 4.9980007,21.154107 v 0.375516 q 0,0.434082 0.1877578,0.6494 0.1877579,0.215319 0.5184872,0.215319 0.2962785,0 0.4616431,-0.155029 0.1653647,-0.156752 0.1653647,-0.382406 h 0.2945559 q 0,0.136081 -0.056844,0.273885 -0.055122,0.137804 -0.1636422,0.261828 -0.106798,0.124023 -0.2928333,0.199815 -0.1860352,0.07407 -0.423747,0.07407 -0.458198,0 -0.7234705,-0.291111 Q 4.6999998,22.082561 4.6999998,21.53479 v -0.387573 q 0,-0.542603 0.2687176,-0.844049 0.2687176,-0.303169 0.7234705,-0.303169 0.2273765,0 0.4099666,0.07579 0.1825902,0.07407 0.2928333,0.199816 0.1119657,0.125746 0.1705324,0.275608 0.060289,0.148139 0.060289,0.304891 H 6.3312535 q 0,-0.229099 -0.1722549,-0.406522 -0.1722548,-0.177422 -0.4668107,-0.177422 -0.3152264,0 -0.5047068,0.227376 -0.1894804,0.227377 -0.1894804,0.654569 z m 3.7275958,1.186836 v 0.272163 H 7.2304241 v -2.559708 h 0.301446 v 2.287545 z m 1.9688735,0 v 0.272163 H 9.173459 v -2.559708 h 1.521011 v 0.272163 H 9.474905 v 0.842326 h 1.150663 V 21.44005 H 9.474905 v 0.900893 z m 0.673517,0.272163 H 11.05965 l 0.921564,-2.559708 h 0.291111 l 0.918118,2.559708 h -0.323839 l -0.265272,-0.788928 h -0.968073 z m 0.756199,-2.191082 h -0.01034 l -0.394463,1.159275 h 0.799262 z m 1.829346,2.191082 h -0.301446 v -2.559708 h 0.301446 l 1.309137,2.046388 h 0.01378 v -2.046388 h 0.298001 v 2.559708 H 15.27645 l -1.312582,-2.046388 h -0.01034 z"
       id="text4"
       inkscape:label="CLEAN"
       aria-label="CLEAN" />
    <path
       style="font-size:3.52778px;font-family:Galvji;-inkscape-font-specification:Galvji;fill:#f1f1f1;stroke-width:0.264583"
       d="m 20.999999,21.934423 h 0.301447 q 0.02067,0.204983 0.18948,0.335897 0.16881,0.130913 0.458198,0.130913 0.272163,0 0.437527,-0.125746 0.165365,-0.125746 0.165365,-0.341064 0,-0.160197 -0.103353,-0.260105 -0.10163,-0.101631 -0.320394,-0.158475 l -0.458198,-0.122301 q -0.258382,-0.06718 -0.42547,-0.229099 -0.165364,-0.161919 -0.165364,-0.434082 0,-0.229099 0.125746,-0.399631 0.127468,-0.170533 0.322116,-0.24977 Q 21.72347,20 21.952569,20 q 0.165365,0 0.313504,0.04306 0.149862,0.04306 0.27733,0.127469 0.127469,0.08268 0.203261,0.227376 0.07752,0.142972 0.08441,0.325562 h -0.301446 q -0.02067,-0.201538 -0.170532,-0.325562 -0.14814,-0.125746 -0.413412,-0.125746 -0.24977,0 -0.406522,0.115411 -0.156752,0.113688 -0.156752,0.322116 0,0.296279 0.363458,0.391019 l 0.447863,0.120578 q 0.322116,0.08957 0.492649,0.24977 0.170532,0.160197 0.170532,0.442695 0,0.36518 -0.266995,0.563273 -0.266995,0.196371 -0.680407,0.196371 -0.235989,0 -0.418579,-0.06718 -0.18259,-0.0689 -0.284221,-0.179145 -0.09991,-0.111966 -0.151584,-0.23599 -0.05168,-0.124023 -0.05512,-0.256659 z m 2.64239,-0.773425 v 0.375516 q 0,0.434082 0.187758,0.649401 0.187758,0.215318 0.518487,0.215318 0.296279,0 0.461644,-0.155029 0.165364,-0.156752 0.165364,-0.382406 h 0.294556 q 0,0.136081 -0.05684,0.273885 -0.05512,0.137804 -0.163642,0.261828 -0.106798,0.124023 -0.292833,0.199815 -0.186036,0.07407 -0.423748,0.07407 -0.458198,0 -0.72347,-0.291111 -0.265273,-0.292833 -0.265273,-0.840604 v -0.387573 q 0,-0.542603 0.268718,-0.844049 0.268718,-0.303169 0.723471,-0.303169 0.227376,0 0.409966,0.07579 0.18259,0.07407 0.292834,0.199815 0.111965,0.125746 0.170532,0.275608 0.06029,0.148139 0.06029,0.304891 h -0.294556 q 0,-0.229099 -0.172255,-0.406521 -0.172255,-0.177423 -0.46681,-0.177423 -0.315227,0 -0.504707,0.227377 -0.189481,0.227376 -0.189481,0.654568 z m 3.143652,-1.100709 q 0.203261,0 0.363458,0.06373 0.160197,0.06201 0.254937,0.16881 0.09474,0.105075 0.142972,0.237711 0.04823,0.132637 0.04823,0.285943 0,0.287666 -0.137804,0.463366 -0.137804,0.1757 -0.339342,0.24977 l 0.523655,1.090373 h -0.34451 l -0.475423,-1.028362 h -0.645956 v 1.028362 h -0.301446 v -2.559708 z m -0.609782,1.262629 h 0.559828 q 0.272163,0 0.41169,-0.125746 0.139526,-0.125746 0.139526,-0.35829 0,-0.248048 -0.142971,-0.378961 -0.142972,-0.130914 -0.394464,-0.130914 h -0.573609 z m 2.103232,1.297079 h -0.308336 l 0.921563,-2.559708 h 0.291111 l 0.918119,2.559708 h -0.32384 L 29.512836,21.83107 h -0.968073 z m 0.756199,-2.191082 h -0.01033 l -0.394464,1.159275 h 0.799263 z m 1.812121,2.191082 h -0.273885 v -2.559708 h 0.287666 l 0.864719,2.049834 h 0.01034 l 0.859552,-2.049834 h 0.29111 v 2.559708 h -0.272162 v -1.906862 h -0.01895 l -0.730361,1.710491 H 31.59712 l -0.735528,-1.710491 h -0.01378 z m 2.773304,0 v -2.559708 h 0.947402 q 0.315226,0 0.508151,0.16881 0.194648,0.16881 0.194648,0.461643 0,0.222209 -0.10852,0.365181 -0.106798,0.141249 -0.298001,0.201538 v 0.01034 q 0.132636,0.02239 0.237712,0.07579 0.106798,0.0534 0.173977,0.136082 0.0689,0.08268 0.105076,0.191203 0.03617,0.106798 0.03617,0.232544 0,0.344509 -0.244602,0.530545 -0.242879,0.186035 -0.647678,0.186035 z m 0.301446,-2.29099 v 0.838881 h 0.401354 q 0.327284,0 0.484036,-0.09991 0.158474,-0.09991 0.158474,-0.327285 0,-0.206706 -0.122301,-0.308336 -0.122301,-0.103353 -0.318671,-0.103353 z m 0,1.107599 v 0.911228 h 0.454753 q 0.136081,0 0.237711,-0.0086 0.103353,-0.01034 0.199816,-0.0379 0.09646,-0.02928 0.158474,-0.07579 0.06374,-0.04651 0.101631,-0.125746 0.0379,-0.07924 0.0379,-0.18948 0,-0.232544 -0.149862,-0.353123 -0.148139,-0.120578 -0.401354,-0.120578 z m 3.574289,0.911228 v 0.272163 h -1.495173 v -2.559708 h 0.301446 v 2.287545 z m 1.968873,0 v 0.272163 h -1.52101 v -2.559708 h 1.52101 v 0.272163 h -1.219564 v 0.842327 h 1.150662 v 0.272162 h -1.150662 v 0.900893 z"
       id="text5"
       inkscape:label="SCRAMBLE"
       aria-label="SCRAMBLE" />
    <path
       style="font-size:3.52778px;font-family:Galvji;-inkscape-font-specification:Galvji;fill:#f1f1f1;stroke-width:0.264583"
       d="m 7.8980008,41.154107 v 0.375516 q 0,0.434082 0.1877578,0.6494 0.1877579,0.215319 0.5184872,0.215319 0.2962784,0 0.4616431,-0.155029 0.1653647,-0.156752 0.1653647,-0.382406 h 0.2945559 q 0,0.136081 -0.056844,0.273885 -0.055122,0.137804 -0.1636422,0.261828 -0.106798,0.124023 -0.2928333,0.199815 -0.1860353,0.07407 -0.423747,0.07407 -0.458198,0 -0.7234705,-0.291111 Q 7.5999999,42.082561 7.5999999,41.53479 v -0.387573 q 0,-0.542603 0.2687176,-0.844049 0.2687176,-0.303169 0.7234705,-0.303169 0.2273765,0 0.4099666,0.07579 0.1825902,0.07407 0.2928333,0.199816 0.1119657,0.125746 0.1705324,0.275608 0.060289,0.148139 0.060289,0.304891 H 9.2312536 q 0,-0.229099 -0.1722549,-0.406522 -0.1722548,-0.177422 -0.4668107,-0.177422 -0.3152264,0 -0.5047068,0.227376 -0.1894804,0.227377 -0.1894804,0.654569 z m 3.1798252,1.458999 H 10.786715 L 9.8548164,40.053398 h 0.3376196 l 0.733806,2.197973 h 0.0155 l 0.73036,-2.197973 h 0.341065 z"
       id="text6"
       inkscape:label="CVC"
       aria-label="CV" />
    <path
       style="font-size:3.52778px;font-family:Galvji;-inkscape-font-specification:Galvji;fill:#f1f1f1;stroke-width:0.264583"
       d="m 28.298001,41.154107 v 0.375516 q 0,0.434082 0.187758,0.6494 0.187758,0.215319 0.518487,0.215319 0.296278,0 0.461643,-0.155029 0.165365,-0.156752 0.165365,-0.382406 h 0.294556 q 0,0.136081 -0.05684,0.273885 -0.05512,0.137804 -0.163642,0.261828 -0.106798,0.124023 -0.292833,0.199815 -0.186035,0.07407 -0.423747,0.07407 -0.458198,0 -0.723471,-0.291111 Q 28,42.082561 28,41.53479 v -0.387573 q 0,-0.542603 0.268718,-0.844049 0.268717,-0.303169 0.72347,-0.303169 0.227377,0 0.409967,0.07579 0.18259,0.07407 0.292833,0.199816 0.111966,0.125746 0.170532,0.275608 0.06029,0.148139 0.06029,0.304891 h -0.294556 q 0,-0.229099 -0.172255,-0.406522 -0.172255,-0.177422 -0.466811,-0.177422 -0.315226,0 -0.504707,0.227376 -0.18948,0.227377 -0.18948,0.654569 z m 3.179825,1.458999 h -0.291111 l -0.931899,-2.559708 h 0.33762 l 0.733806,2.197973 h 0.0155 l 0.73036,-2.197973 h 0.341065 z"
       id="text7"
       inkscape:label="CLEAN"
       aria-label="CV" />
    <!-- === CENTER ARTWORK: Bold RGB waves === -->
    <!-- Upper wave — bigger amplitude, thicker stroke -->
    <path style="fill:none;stroke:#ee2525;stroke-width:0.6;stroke-opacity:0.4" id="wave-r2"
       d="M -10.2,63 Q -5.1,56 0,63 Q 5.1,70 10.2,63 Q 15.3,56 20.3,63 Q 25.4,70 30.5,63 Q 35.5,56 40.64,63 Q 45.7,70 50.8,63"
       transform="translate(-0.8,-0.5)" />
    <path style="fill:none;stroke:#25ee50;stroke-width:0.6;stroke-opacity:0.25" id="wave-g2"
       d="M -10.2,63 Q -5.1,56 0,63 Q 5.1,70 10.2,63 Q 15.3,56 20.3,63 Q 25.4,70 30.5,63 Q 35.5,56 40.64,63 Q 45.7,70 50.8,63" />
    <path style="fill:none;stroke:#2550ee;stroke-width:0.6;stroke-opacity:0.4" id="wave-b2"
       d="M -10.2,63 Q -5.1,56 0,63 Q 5.1,70 10.2,63 Q 15.3,56 20.3,63 Q 25.4,70 30.5,63 Q 35.5,56 40.64,63 Q 45.7,70 50.8,63"
       transform="translate(0.8,0.5)" />
    <!-- Main RGB waveform — bold center piece -->
    <path style="fill:none;stroke:#ee2525;stroke-width:0.8;stroke-opacity:0.7" id="wave-r1"
       inkscape:label="WAVE-R"
       d="M -8.1,80 Q -4.1,89 0,80 Q 4.1,71 8.1,80 Q 12.2,89 16.3,80 Q 20.3,71 24.4,80 Q 28.4,89 32.5,80 Q 36.6,71 40.64,80 Q 44.7,89 48.8,80"
       transform="translate(-1.2,-0.8)" />
    <path style="fill:none;stroke:#25ee50;stroke-width:0.8;stroke-opacity:0.45" id="wave-g1"
       inkscape:label="WAVE-G"
       d="M -8.1,80 Q -4.1,89 0,80 Q 4.1,71 8.1,80 Q 12.2,89 16.3,80 Q 20.3,71 24.4,80 Q 28.4,89 32.5,80 Q 36.6,71 40.64,80 Q 44.7,89 48.8,80" />
    <path style="fill:none;stroke:#2550ee;stroke-width:0.8;stroke-opacity:0.7" id="wave-b1"
       inkscape:label="WAVE-B"
       d="M -8.1,80 Q -4.1,89 0,80 Q 4.1,71 8.1,80 Q 12.2,89 16.3,80 Q 20.3,71 24.4,80 Q 28.4,89 32.5,80 Q 36.6,71 40.64,80 Q 44.7,89 48.8,80"
       transform="translate(1.2,0.8)" />
    <!-- Lower wave — bigger amplitude, thicker stroke -->
    <path style="fill:none;stroke:#ee2525;stroke-width:0.6;stroke-opacity:0.35" id="wave-r3"
       d="M -10.2,96 Q -5.1,89 0,96 Q 5.1,103 10.2,96 Q 15.3,89 20.3,96 Q 25.4,103 30.5,96 Q 35.5,89 40.64,96 Q 45.7,103 50.8,96"
       transform="translate(-0.7,-0.4)" />
    <path style="fill:none;stroke:#25ee50;stroke-width:0.6;stroke-opacity:0.2" id="wave-g3"
       d="M -10.2,96 Q -5.1,89 0,96 Q 5.1,103 10.2,96 Q 15.3,89 20.3,96 Q 25.4,103 30.5,96 Q 35.5,89 40.64,96 Q 45.7,103 50.8,96" />
    <path style="fill:none;stroke:#2550ee;stroke-width:0.6;stroke-opacity:0.35" id="wave-b3"
       d="M -10.2,96 Q -5.1,89 0,96 Q 5.1,103 10.2,96 Q 15.3,89 20.3,96 Q 25.4,103 30.5,96 Q 35.5,89 40.64,96 Q 45.7,103 50.8,96"
       transform="translate(0.7,0.4)" />
    <path
       d="m 10.874933,126.5 v -2.04776 h 0.75792 q 0.252181,0 0.406521,0.13504 0.155719,0.13505 0.155719,0.36932 0,0.17777 -0.08682,0.29214 -0.08544,0.113 -0.2384,0.16123 v 0.008 q 0.106109,0.0179 0.190169,0.0606 0.08544,0.0427 0.139182,0.10887 0.05512,0.0662 0.08406,0.15296 0.02894,0.0854 0.02894,0.18604 0,0.2756 -0.195681,0.42443 Q 11.922241,126.5 11.598403,126.5 Z m 0.241157,-1.83279 v 0.6711 h 0.321082 q 0.261827,0 0.387229,-0.0799 0.126779,-0.0799 0.126779,-0.26183 0,-0.16536 -0.09784,-0.24667 -0.09784,-0.0827 -0.254936,-0.0827 z m 0,0.88608 v 0.72898 h 0.363801 q 0.108865,0 0.190169,-0.007 0.08268,-0.008 0.159853,-0.0303 0.07717,-0.0234 0.126779,-0.0606 0.05099,-0.0372 0.0813,-0.1006 0.03032,-0.0634 0.03032,-0.15158 0,-0.18604 -0.119889,-0.2825 -0.118511,-0.0965 -0.321083,-0.0965 z m 2.231042,0.97289 q -0.308681,0 -0.483691,-0.18465 -0.175011,-0.18604 -0.175011,-0.50161 v -0.25494 q 0,-0.31006 0.179145,-0.49747 0.179145,-0.18741 0.461642,-0.18741 0.282498,0 0.461643,0.18741 0.179144,0.18741 0.179144,0.49747 v 0.19293 h -1.044552 v 0.0799 q 0,0.19982 0.110243,0.32936 0.111621,0.12953 0.311437,0.12953 0.137803,0 0.230132,-0.0551 0.09371,-0.0565 0.119889,-0.13505 h 0.249425 q -0.01102,0.0662 -0.05237,0.13229 -0.04134,0.0661 -0.111621,0.12816 -0.07028,0.062 -0.184657,0.1006 -0.112999,0.0386 -0.250802,0.0386 z m -0.42168,-0.93017 h 0.806152 v -0.0276 q 0,-0.13781 -0.05099,-0.24254 -0.04961,-0.10473 -0.141938,-0.15985 -0.09095,-0.0565 -0.21084,-0.0565 -0.180523,0 -0.292144,0.1254 -0.110243,0.12403 -0.110243,0.33349 z M 14.460586,126.5 v -1.5751 h 0.234266 v 0.24392 h 0.0124 q 0.03996,-0.10611 0.144694,-0.18604 0.104731,-0.0799 0.296278,-0.0799 0.02894,0 0.09233,0.006 v 0.21773 q -0.03445,-0.006 -0.121268,-0.006 -0.137803,0 -0.235644,0.0537 -0.09646,0.0524 -0.143316,0.1378 -0.04548,0.0841 -0.04548,0.19293 V 126.5 Z m 1.072112,-1.12723 q 0,-0.23289 0.163987,-0.35278 0.165364,-0.11989 0.409277,-0.11989 0.122645,0 0.225998,0.0331 0.103353,0.0331 0.175011,0.0909 0.07166,0.0565 0.110243,0.13643 0.03858,0.0799 0.03858,0.17501 h -0.220486 q -0.0055,-0.0606 -0.04134,-0.113 -0.03583,-0.0537 -0.114377,-0.091 -0.07855,-0.0372 -0.184657,-0.0372 -0.09784,0 -0.172255,0.0289 -0.07441,0.0289 -0.118511,0.0882 -0.04272,0.0579 -0.04272,0.13504 0,0.0551 0.02205,0.0951 0.02343,0.04 0.05237,0.0634 0.02894,0.022 0.08406,0.0427 0.0565,0.0207 0.09233,0.0276 0.03583,0.007 0.104731,0.0207 0.0055,0 0.0096,0.001 0.0055,0.001 0.01103,0.001 0.0055,0 0.01102,0.004 0.08268,0.0138 0.143316,0.0289 0.06063,0.0138 0.128157,0.0372 0.06752,0.0221 0.112999,0.0538 0.04548,0.0317 0.08544,0.0758 0.04134,0.0441 0.05926,0.10473 0.01929,0.0606 0.01929,0.13505 0,0.22875 -0.169499,0.35829 -0.169498,0.12953 -0.447862,0.12953 -0.257693,0 -0.417545,-0.113 -0.158474,-0.11437 -0.158474,-0.32108 h 0.23151 q 0.03445,0.23565 0.355534,0.23565 0.126779,0 0.212217,-0.0358 0.08682,-0.0358 0.124024,-0.091 0.03721,-0.0565 0.03721,-0.13367 0,-0.0524 -0.02205,-0.0923 -0.02067,-0.04 -0.05099,-0.0634 -0.03032,-0.0248 -0.09095,-0.0469 -0.05926,-0.022 -0.104731,-0.0317 -0.0441,-0.01 -0.126779,-0.0276 -0.108865,-0.022 -0.172255,-0.0372 -0.06339,-0.0165 -0.143316,-0.051 -0.07993,-0.0344 -0.122645,-0.0758 -0.04134,-0.0427 -0.07028,-0.10886 -0.02756,-0.0675 -0.02756,-0.15985 z m 2.202104,1.15341 q -0.30868,0 -0.483691,-0.18465 -0.175011,-0.18604 -0.175011,-0.50161 v -0.25494 q 0,-0.31006 0.179145,-0.49747 0.179145,-0.18741 0.461642,-0.18741 0.282498,0 0.461643,0.18741 0.179145,0.18741 0.179145,0.49747 v 0.19293 h -1.044552 v 0.0799 q 0,0.19982 0.110243,0.32936 0.111621,0.12953 0.311436,0.12953 0.137804,0 0.230132,-0.0551 0.09371,-0.0565 0.119889,-0.13505 h 0.249425 q -0.01102,0.0662 -0.05236,0.13229 -0.04134,0.0661 -0.111621,0.12816 -0.07028,0.062 -0.184657,0.1006 -0.112999,0.0386 -0.250803,0.0386 z m -0.421679,-0.93017 h 0.806151 v -0.0276 q 0,-0.13781 -0.05099,-0.24254 -0.04961,-0.10473 -0.141938,-0.15985 -0.09095,-0.0565 -0.21084,-0.0565 -0.180522,0 -0.292143,0.1254 -0.110243,0.12403 -0.110243,0.33349 z M 18.848256,126.5 v -1.5751 h 0.234266 v 0.24392 h 0.0124 q 0.03996,-0.10611 0.144694,-0.18604 0.104731,-0.0799 0.296278,-0.0799 0.02894,0 0.09233,0.006 v 0.21773 q -0.03445,-0.006 -0.121268,-0.006 -0.137803,0 -0.235644,0.0537 -0.09646,0.0524 -0.143316,0.1378 -0.04547,0.0841 -0.04547,0.19293 V 126.5 Z m 1.390439,-0.58842 V 126.5 h -0.235644 v -2.15663 h 0.235644 v 1.305 h 0.0083 l 0.665592,-0.72347 h 0.278364 l -0.631141,0.68627 0.671104,0.88883 h -0.283876 l -0.556727,-0.74001 z M 22.32091,126.5 h -0.246669 l 0.73725,-2.04776 h 0.232888 L 23.778873,126.5 h -0.259071 l -0.212218,-0.63114 h -0.774457 z m 0.604958,-1.75286 h -0.0083 l -0.315571,0.92742 h 0.639409 z m 2.455662,0.17776 V 126.5 h -0.234267 v -0.26045 h -0.01516 q -0.03996,0.11438 -0.159852,0.20119 -0.118511,0.0854 -0.307303,0.0854 -0.25218,0 -0.398252,-0.11989 -0.144694,-0.12126 -0.144694,-0.37896 v -1.10243 h 0.2384 v 1.0418 q 0,0.35553 0.35829,0.35553 0.181901,0 0.304546,-0.11437 0.124023,-0.11576 0.124023,-0.27286 v -1.0101 z m 1.090028,-0.0248 q 0.183278,0 0.299034,0.0744 0.117133,0.0744 0.159852,0.18053 h 0.01102 v -0.81167 h 0.235645 V 126.5 h -0.223242 v -0.24942 h -0.0124 q -0.03032,0.1061 -0.157096,0.19016 -0.126779,0.0827 -0.321083,0.0827 -0.272851,0 -0.440972,-0.17639 -0.166742,-0.17639 -0.166742,-0.47267 v -0.32659 q 0,-0.28939 0.166742,-0.46854 0.168121,-0.17914 0.449241,-0.17914 z m 0.03169,0.20946 q -0.191547,0 -0.303168,0.13229 -0.110243,0.13092 -0.110243,0.36656 v 0.20671 q 0,0.23702 0.112999,0.36931 0.114377,0.13229 0.308681,0.13229 0.195681,0 0.312814,-0.12678 0.117133,-0.12816 0.117133,-0.34726 v -0.2949 q 0,-0.18879 -0.124023,-0.31282 -0.122645,-0.1254 -0.314193,-0.1254 z M 27.771046,126.5 v -1.5751 H 28.00669 V 126.5 Z m -0.06063,-2.06568 q 0,-0.0772 0.05099,-0.12678 0.05237,-0.051 0.126779,-0.051 0.07717,0 0.12678,0.051 0.05099,0.0496 0.05099,0.12678 0,0.0524 -0.02343,0.0923 -0.02205,0.04 -0.06339,0.062 -0.04134,0.0207 -0.09095,0.0207 -0.07441,0 -0.126779,-0.0496 -0.05099,-0.0496 -0.05099,-0.1254 z m 1.478636,0.46578 q 0.2949,0 0.480935,0.18328 0.186035,0.18328 0.186035,0.50436 v 0.24942 q 0,0.32109 -0.187413,0.50574 -0.187413,0.18328 -0.479557,0.18328 -0.299034,0 -0.483691,-0.1819 Q 28.5207,126.161 28.5207,125.83716 v -0.24942 q 0,-0.31006 0.188791,-0.49885 0.188791,-0.18879 0.479557,-0.18879 z m -0.434082,0.71382 v 0.19706 q 0,0.15572 0.05099,0.26872 0.05237,0.113 0.150206,0.17501 0.09784,0.062 0.232888,0.062 0.202571,0 0.31557,-0.13642 0.114377,-0.13643 0.114377,-0.36932 v -0.19706 q 0,-0.23013 -0.117133,-0.36656 -0.115755,-0.1378 -0.312814,-0.1378 -0.195681,0 -0.315571,0.13918 -0.118511,0.13781 -0.118511,0.36518 z"
       id="brand-text"
       style="font-size:2.82222px;font-family:Galvji;-inkscape-font-specification:Galvji;text-anchor:middle;fill:#808080"
       inkscape:label="BRAND"
       aria-label="Berserk Audio" />
  </g>
  <g
     inkscape:groupmode="layer"
     id="layer3"
     inkscape:label="components"
     style="display:none">
    <circle
       style="fill:#ff0000;fill-opacity:1;stroke-width:0.264583"
       id="path5"
       cx="10"
       cy="30.5"
       r="5.5"
       inkscape:label="CLEAN" />
    <circle
       style="fill:#ff0000;fill-opacity:1;stroke-width:0.264583"
       id="circle6"
       cx="30"
       cy="30.5"
       r="5.5"
       inkscape:label="SCRAMBLE" />
    <circle
       style="fill:#00ff00;fill-opacity:1;stroke-width:0.264583"
       id="circle7"
       cx="8.5"
       cy="110.5"
       r="3.5"
       inkscape:label="IN" />
    <circle
       style="fill:#0000ff;fill-opacity:1;stroke-width:0.264583"
       id="circle8"
       cx="31.5"
       cy="110.5"
       r="3.5"
       inkscape:label="OUT" />
    <circle
       style="fill:#00ff00;fill-opacity:1;stroke-width:0.264583"
       id="circle1"
       cx="30.4"
       cy="48.5"
       r="3.5"
       inkscape:label="CVINS" />
    <circle
       style="fill:#00ff00;fill-opacity:1;stroke-width:0.264583"
       id="circle2"
       cx="9.8999996"
       cy="48.5"
       r="3.5"
       inkscape:label="CVINC" />
  </g>
</svg>
